<?xml version="1.0" standalone="no"?>
<!DOCTYPE svg PUBLIC "-//W3C//DTD SVG 20010904//EN"
 "http://www.w3.org/TR/2001/REC-SVG-20010904/DTD/svg10.dtd">
<svg version="1.0" xmlns="http://www.w3.org/2000/svg"
 width="1920.000000pt" height="1080.000000pt" viewBox="0 0 1920.000000 1080.000000"
 preserveAspectRatio="xMidYMid meet">
<metadata>
Created by potrace 1.15, written by Peter Selinger 2001-2017
</metadata>
<g transform="translate(0.000000,1080.000000) scale(0.100000,-0.100000)"
fill="#000000" stroke="none">
<path d="M0 5400 l0 -5400 4055 0 c3593 0 4054 2 4049 15 -4 8 -9 13 -13 10
-4 -2 -7 6 -7 18 1 17 -6 23 -26 25 -17 2 -28 9 -28 18 0 8 -5 20 -10 27 -6 7
-31 38 -56 70 -26 31 -53 57 -60 57 -8 0 -14 4 -14 9 0 5 -9 13 -20 16 -11 4
-33 18 -50 31 -16 14 -32 25 -35 25 -19 -2 -25 1 -25 14 0 17 -23 42 -63 68
-15 9 -27 24 -27 32 0 8 -7 15 -15 15 -9 0 -18 7 -21 15 -4 8 -10 13 -14 10
-5 -3 -16 5 -24 17 -9 12 -16 19 -16 14 0 -4 -12 6 -26 23 -14 17 -30 29 -34
26 -5 -3 -23 13 -41 35 -17 21 -35 37 -40 35 -4 -3 -25 11 -46 31 -21 20 -55
49 -75 66 -21 16 -43 41 -50 56 -7 14 -17 25 -22 23 -5 -1 -12 1 -15 6 -3 4
-23 17 -44 28 -21 11 -53 34 -70 52 -17 18 -42 35 -54 38 -13 3 -23 9 -23 14
0 5 -33 33 -72 62 -40 29 -77 57 -83 63 -5 6 -23 20 -40 30 -29 19 -77 57
-243 194 -125 102 -174 144 -227 192 -54 49 -144 126 -206 176 -21 17 -139
128 -261 247 -636 615 -683 669 -709 826 -24 145 16 286 107 376 46 45 143
121 165 130 9 3 26 29 38 57 26 60 22 107 -14 178 -13 25 -27 55 -30 68 -9 32
-61 90 -98 109 -17 8 -67 25 -111 38 -173 48 -401 169 -565 300 -217 174 -307
305 -445 655 -85 214 -119 326 -141 465 -8 55 -33 213 -55 350 -40 248 -45
283 -54 360 -3 22 -12 90 -21 150 -8 61 -26 205 -40 320 -14 116 -36 300 -50
410 -30 244 -61 524 -75 665 -6 58 -16 152 -21 210 -6 58 -13 139 -15 180 -1
41 -7 95 -13 120 -5 25 -13 86 -16 135 -4 50 -13 151 -20 225 -8 74 -21 230
-30 345 -8 116 -22 289 -30 385 -27 335 -40 785 -27 963 15 214 66 493 108
596 20 49 18 72 -4 44 -22 -29 -45 -32 -105 -13 -32 10 -47 20 -45 30 3 21
-12 60 -23 60 -5 0 -9 6 -9 14 0 9 -16 17 -40 21 -35 6 -42 11 -47 37 -3 16
-14 35 -24 41 -11 7 -19 20 -19 29 0 17 -85 18 -1715 18 l-1715 0 0 -5400z"/>
<path d="M7500 10787 c0 -6 4 -26 9 -42 28 -86 40 -110 68 -125 53 -28 76 -58
80 -100 3 -31 1 -40 -11 -40 -9 0 -18 -12 -21 -27 -3 -16 -11 -45 -17 -65 -8
-27 -8 -49 1 -82 13 -54 14 -106 2 -106 -5 0 -12 6 -14 13 -4 9 -8 8 -16 -3
-20 -28 -13 -48 19 -52 26 -4 30 -2 31 21 1 14 5 1 10 -29 10 -57 20 -70 57
-70 15 0 22 -6 22 -20 0 -11 5 -20 10 -20 6 0 10 -7 10 -15 0 -8 5 -15 12 -15
6 0 9 -2 7 -5 -6 -5 -186 -38 -214 -38 -11 -1 -23 -5 -26 -10 -4 -5 -27 -12
-53 -14 -26 -3 -49 -10 -52 -14 -3 -5 -36 -9 -73 -9 -63 0 -70 2 -86 26 -13
20 -15 37 -10 73 4 25 4 43 0 39 -20 -19 -97 112 -115 194 -5 24 -16 68 -24
98 -8 30 -26 98 -40 150 -41 149 -56 196 -71 216 -12 17 -29 19 -184 19 -94 0
-171 -3 -171 -7 0 -5 -6 -8 -13 -8 -7 0 -19 -9 -27 -20 -14 -20 -40 -28 -40
-12 0 4 -36 7 -80 7 -75 0 -81 -1 -86 -22 -6 -23 -20 -28 -109 -36 -22 -2 -54
2 -72 10 -42 17 -53 16 -53 -3 0 -12 -7 -14 -30 -9 -19 4 -30 3 -30 -4 0 -6
-21 -11 -49 -11 -27 0 -51 -4 -53 -8 -1 -5 -29 -12 -60 -15 -46 -4 -58 -3 -58
9 0 8 -7 14 -15 14 -8 0 -15 -4 -15 -9 0 -5 -11 -12 -25 -15 -16 -4 -25 -13
-25 -26 0 -13 -7 -20 -20 -20 -12 0 -20 -7 -20 -18 0 -11 -15 -24 -40 -35 -52
-22 -80 -22 -81 1 0 10 -3 12 -6 5 -2 -7 -11 -13 -19 -13 -8 0 -14 -10 -14
-25 0 -20 -6 -25 -35 -31 -19 -3 -39 -12 -43 -20 -5 -9 -27 -14 -62 -14 -30 0
-66 0 -80 -1 -14 0 -60 0 -102 0 l-78 1 0 -40 c0 -33 -3 -40 -20 -40 -17 0
-20 7 -20 40 0 33 -3 40 -20 40 -13 0 -20 -7 -20 -20 0 -13 -7 -20 -20 -20
-13 0 -20 7 -20 20 0 13 -7 20 -20 20 -16 0 -20 -7 -20 -35 0 -28 -4 -35 -20
-35 -11 0 -20 7 -20 15 0 8 -6 15 -14 15 -10 0 -17 16 -22 48 -4 26 -15 54
-25 63 -11 9 -19 21 -19 28 0 6 -7 11 -15 11 -8 0 -15 6 -15 13 0 7 -11 23
-25 35 -14 12 -25 17 -25 12 0 -6 -7 -10 -15 -10 -8 0 -15 5 -15 10 0 6 -7 10
-15 10 -8 0 -15 7 -15 16 0 23 -25 44 -53 44 -59 0 -87 12 -87 36 0 20 -5 24
-30 24 -16 0 -30 4 -30 10 0 5 -19 8 -42 6 -28 -2 -42 -7 -40 -15 4 -18 -17
-41 -37 -41 -37 0 -131 -61 -131 -84 0 -6 -10 -16 -22 -21 -13 -6 -27 -24 -33
-42 -5 -18 -14 -33 -21 -33 -18 0 -94 -96 -94 -119 0 -12 -5 -21 -11 -21 -6 0
-9 -6 -6 -12 2 -7 -5 -28 -16 -46 -11 -19 -21 -50 -23 -70 -4 -44 -26 -112
-36 -112 -5 0 -8 -12 -8 -26 0 -14 -6 -40 -14 -57 -23 -51 -26 -82 -28 -277
-2 -245 2 -362 15 -378 10 -13 17 -93 18 -210 1 -42 8 -79 22 -110 17 -37 21
-66 21 -137 0 -49 2 -82 4 -72 2 9 7 17 11 17 12 0 41 -40 41 -56 0 -9 9 -18
20 -21 17 -5 19 -11 14 -44 -7 -42 15 -89 41 -89 10 0 15 -10 15 -31 0 -26 2
-28 14 -16 10 10 13 33 11 82 -4 77 6 105 36 105 13 0 19 5 16 13 -2 7 6 18
19 24 19 9 24 8 24 -3 0 -11 4 -10 18 4 10 9 17 22 14 29 -4 14 -23 13 -34 -2
-4 -5 -8 0 -8 12 0 12 -8 24 -17 27 -11 3 -7 4 7 3 19 -2 28 5 39 30 10 22 25
36 48 44 18 6 33 15 33 20 0 5 9 9 19 9 13 0 21 -9 26 -30 4 -16 10 -30 13
-30 13 1 42 27 42 39 0 6 7 11 15 11 8 0 15 6 15 14 0 8 8 13 18 12 9 -2 20 2
24 8 6 8 8 8 8 0 0 -8 12 -6 35 4 19 9 35 22 35 29 0 7 5 13 11 13 7 0 10 14
7 36 -4 30 1 39 26 61 17 14 30 32 28 40 -2 8 8 25 22 38 14 13 26 32 26 42 0
11 15 26 36 38 19 10 46 32 60 48 13 16 24 26 24 22 0 -4 7 1 16 9 9 9 32 16
54 16 21 0 42 5 45 10 3 6 17 7 31 4 15 -4 24 -2 24 6 0 8 10 10 34 6 20 -4
36 -2 38 3 1 6 32 12 67 15 35 3 68 10 72 17 5 9 11 10 21 2 9 -7 33 -8 73 -2
33 4 70 6 81 3 12 -3 25 -1 28 5 4 6 24 8 52 4 27 -3 61 -1 84 7 30 10 88 11
262 3 126 -5 238 -5 257 0 28 7 39 5 64 -13 29 -22 38 -20 50 14 1 5 28 -4 59
-18 54 -26 57 -28 46 -52 -6 -13 -15 -24 -20 -24 -4 0 -8 -4 -8 -10 0 -5 9
-10 20 -10 15 0 20 -7 20 -25 0 -29 0 -29 -35 -13 -20 9 -31 8 -50 -2 -13 -7
-22 -16 -20 -21 3 -4 -9 -12 -25 -18 -17 -5 -30 -15 -30 -20 0 -6 -17 -11 -37
-11 -62 0 -81 -9 -88 -41 -4 -16 -13 -29 -20 -29 -22 0 -27 17 -10 33 20 21
19 27 -5 27 -19 0 -24 -9 -21 -35 0 -6 -21 -19 -47 -29 -46 -18 -49 -21 -50
-59 -1 -22 -7 -57 -14 -78 -10 -37 -14 -39 -50 -39 -33 0 -38 -3 -38 -24 0
-22 3 -24 39 -19 39 5 40 5 39 -28 0 -48 -7 -69 -24 -69 -10 0 -14 12 -14 40
0 33 -3 40 -20 40 -11 0 -20 -7 -20 -15 0 -8 6 -15 13 -15 8 0 7 -3 -3 -10
-11 -7 -15 -25 -14 -65 1 -44 -2 -55 -15 -56 -12 0 -11 -2 4 -9 31 -12 47 -37
40 -60 -6 -17 -2 -20 27 -19 28 0 30 1 12 9 -21 8 -37 43 -26 54 7 8 66 8 86
0 22 -8 20 -31 -3 -39 -21 -6 -34 -31 -25 -46 3 -6 18 -9 32 -8 69 5 92 0 92
-22 0 -17 -4 -20 -24 -15 -29 7 -76 -12 -76 -31 0 -7 -4 -13 -10 -13 -15 0
-12 -77 3 -83 10 -4 10 -6 0 -6 -7 -1 -13 -8 -13 -16 0 -23 71 -17 78 7 5 21
22 24 22 4 0 -8 6 -17 13 -20 6 -3 1 -4 -11 -3 -21 2 -24 -3 -28 -45 -3 -45
-2 -48 21 -48 18 0 25 -5 25 -20 0 -15 7 -20 25 -20 22 0 30 -9 26 -32 0 -3
14 -11 31 -17 l31 -11 -27 -21 c-28 -22 -56 -20 -56 5 0 10 -6 13 -15 10 -23
-9 -18 -53 8 -75 12 -10 16 -18 10 -19 -19 0 -16 -50 3 -50 18 0 34 -15 53
-52 17 -34 8 -62 -19 -55 -11 3 -20 0 -20 -6 -1 -7 -7 -1 -15 13 -8 14 -14 19
-15 12 0 -8 -5 -10 -12 -6 -9 5 -9 2 1 -9 12 -15 11 -17 -9 -17 -16 0 -20 -4
-16 -16 3 -9 9 -27 12 -40 5 -18 13 -25 28 -23 64 5 90 -16 80 -67 -6 -30 -4
-34 16 -34 13 0 24 8 27 20 7 28 33 26 32 -2 0 -13 -3 -17 -6 -11 -8 22 -33
-12 -33 -45 0 -21 7 -32 25 -40 30 -14 36 -62 8 -62 -10 0 -26 -7 -36 -15 -18
-13 -16 -14 20 -24 21 -6 44 -11 51 -11 23 0 13 -46 -12 -58 -28 -12 -36 -7
-36 23 0 18 -5 22 -30 21 -33 -1 -42 -26 -10 -26 25 0 25 -12 1 -34 -14 -13
-20 -14 -23 -4 -4 10 -9 9 -22 -5 -10 -9 -22 -17 -28 -17 -6 0 -2 -8 8 -17 10
-10 19 -24 20 -30 3 -33 5 -35 33 -30 21 4 31 2 35 -9 10 -27 7 -44 -9 -44 -8
0 -15 -7 -15 -15 0 -11 11 -13 53 -9 36 4 48 3 38 -4 -8 -6 -23 -9 -33 -7 -16
3 -18 -3 -15 -61 1 -40 6 -64 13 -64 13 0 24 23 24 51 0 25 26 25 40 0 13 -25
13 -27 -3 -43 -27 -28 -57 -86 -57 -112 0 -14 -5 -26 -11 -26 -6 0 -9 -14 -7
-32 2 -24 10 -34 33 -42 22 -8 29 -16 27 -32 -2 -13 4 -24 15 -28 9 -4 14 -4
11 0 -4 3 0 13 8 21 12 12 17 13 30 3 13 -11 13 -15 -3 -32 -13 -14 -14 -21
-5 -30 20 -20 14 -38 -12 -38 -30 0 -41 -41 -17 -64 10 -11 11 -16 3 -16 -7 0
-12 -9 -12 -20 0 -38 19 -20 26 25 7 51 15 59 47 51 22 -5 47 -46 47 -76 0
-14 -60 -40 -94 -40 -16 0 -25 -19 -19 -37 7 -18 24 -16 47 6 19 18 24 18 56
5 30 -13 33 -17 18 -25 -10 -6 -18 -18 -18 -28 0 -10 -9 -21 -20 -24 -27 -7
-25 -33 6 -64 14 -14 26 -37 27 -52 2 -14 8 -26 16 -26 8 0 15 -8 17 -18 1
-10 14 -29 28 -43 31 -32 25 -51 -20 -56 -30 -4 -35 -1 -31 14 3 11 0 18 -9
18 -8 0 -14 -10 -14 -25 0 -15 6 -25 14 -25 7 0 16 -9 19 -21 3 -13 12 -19 23
-17 12 2 23 -7 32 -25 19 -38 9 -61 -23 -53 -14 4 -25 3 -25 -2 0 -15 24 -32
45 -32 12 0 26 -5 33 -12 15 -15 16 -48 2 -48 -5 0 -10 7 -10 15 0 9 -6 12
-17 8 -11 -4 -13 -8 -5 -11 7 -2 19 -19 27 -38 9 -23 21 -34 34 -34 12 0 21
-6 21 -14 0 -7 10 -16 23 -20 32 -8 37 -8 37 7 0 7 9 18 20 25 11 7 20 21 20
32 0 15 7 20 28 20 27 0 52 -15 52 -32 0 -4 -11 -8 -24 -8 -34 0 -56 -10 -56
-25 0 -23 -28 -43 -52 -38 -19 4 -20 3 -8 -7 12 -9 8 -11 -21 -7 -33 5 -37 3
-47 -27 -16 -43 -15 -57 5 -71 20 -15 32 -133 14 -144 -15 -10 -71 -1 -71 10
0 5 5 9 10 9 21 0 9 37 -15 48 -34 16 -43 15 -63 -5 -16 -16 -16 -16 1 -10 9
3 17 2 17 -3 0 -14 27 -12 34 3 3 6 4 -5 1 -25 -5 -34 -4 -38 17 -39 20 -1 20
-2 4 -6 -27 -7 -41 -23 -50 -56 -6 -26 -25 -38 -27 -17 -1 6 -3 15 -4 20 -1 6
-3 15 -4 20 -2 16 -31 11 -31 -5 0 -24 -31 -31 -46 -11 -7 10 -17 15 -23 12
-5 -4 -14 1 -19 9 -10 19 -42 10 -42 -11 0 -9 -11 -14 -29 -14 -23 0 -30 -5
-33 -22 -2 -18 -8 -22 -27 -20 -40 6 -71 -7 -71 -28 0 -13 -7 -20 -19 -20 -11
0 -22 -6 -24 -12 -3 -7 -6 4 -6 25 -1 30 -5 37 -20 37 -38 0 -51 -11 -51 -45
0 -46 -9 -65 -30 -65 -11 0 -22 -4 -25 -10 -3 -5 -26 -10 -51 -10 -40 0 -44 2
-44 25 0 28 -6 30 -46 15 -21 -8 -24 -14 -16 -22 14 -14 16 -48 4 -48 -5 0
-22 -11 -38 -25 -29 -25 -74 -34 -74 -15 0 19 -37 10 -48 -12 l-11 -23 -1 25
-2 25 -7 -24 c-8 -30 -31 -40 -32 -14 0 10 -3 13 -6 6 -2 -7 -20 -13 -39 -13
-31 0 -34 -3 -34 -30 0 -30 1 -30 54 -30 71 0 90 -7 71 -26 -7 -8 -25 -14 -39
-14 -26 0 -86 -44 -86 -63 0 -7 12 -20 26 -30 23 -17 27 -17 49 -3 28 18 65
20 115 6 28 -8 43 -7 73 7 32 14 44 15 71 5 18 -7 49 -12 69 -12 32 0 37 3 37
23 0 22 3 22 75 19 62 -4 76 -1 81 12 7 17 64 23 64 6 0 -14 106 -13 129 2 13
8 35 8 77 2 59 -10 85 -6 152 23 18 8 37 11 43 8 5 -4 42 -7 82 -7 51 0 82 -5
109 -19 21 -11 38 -15 38 -9 0 5 16 10 35 10 19 0 35 4 35 8 0 5 11 15 25 22
21 11 27 11 43 -3 16 -15 21 -15 38 -2 25 19 54 19 54 -1 0 -8 7 -22 15 -30 8
-9 15 -12 15 -8 0 3 7 1 15 -6 8 -7 15 -23 15 -36 0 -13 5 -24 10 -24 6 0 10
6 10 13 0 7 9 20 20 30 11 9 20 26 20 37 0 24 28 27 70 5 34 -17 40 -31 29
-68 -11 -40 -1 -57 32 -57 26 0 29 4 29 30 0 17 5 30 10 30 6 0 10 -14 10 -31
l0 -31 48 7 c26 4 52 8 57 8 6 1 14 11 19 22 9 19 10 19 13 -2 3 -15 12 -23
24 -23 10 0 19 -4 19 -9 0 -5 10 -7 22 -3 16 4 19 2 13 -8 -6 -10 -1 -12 26
-6 19 4 71 10 117 13 45 3 82 10 82 14 0 15 42 10 98 -10 30 -11 54 -15 58
-10 3 5 28 7 57 3 57 -8 98 -38 118 -86 14 -35 84 -68 153 -75 71 -6 107 -51
71 -87 -8 -8 -15 -21 -15 -28 0 -7 -9 -19 -20 -26 -11 -7 -20 -20 -20 -30 0
-10 -13 -26 -30 -35 -44 -26 -41 -67 7 -111 32 -29 57 -44 145 -87 10 -5 25
-9 33 -9 9 0 43 -11 76 -25 68 -29 78 -26 106 29 18 37 75 90 120 111 19 9 82
19 155 24 101 6 130 12 161 30 20 13 37 27 37 31 0 17 -18 19 -31 4 -23 -27
-57 -35 -105 -23 -24 6 -44 14 -44 18 1 3 9 16 19 29 24 28 74 29 100 3 19
-19 20 -19 36 5 12 19 24 24 55 24 21 0 41 4 44 9 6 10 101 35 126 33 8 0 25
1 37 4 19 4 21 7 12 23 -15 24 -4 68 19 73 22 6 111 -28 137 -52 63 -58 153
-63 324 -19 67 17 132 28 145 25 28 -7 46 -44 46 -95 0 -48 -14 -60 -90 -74
-33 -6 -59 -15 -58 -19 2 -4 25 -23 52 -40 39 -27 57 -49 92 -116 24 -46 69
-119 100 -163 64 -92 114 -193 114 -230 0 -14 10 -35 23 -46 50 -45 282 -170
367 -198 30 -10 90 -35 133 -57 72 -36 82 -38 113 -28 19 6 34 16 34 21 0 6
-23 33 -51 60 -37 36 -90 70 -190 120 -159 79 -181 99 -290 254 -113 160 -130
198 -124 270 5 67 2 75 -36 92 -40 17 -76 71 -94 138 -25 98 -20 108 66 121
24 4 61 15 81 25 59 30 223 46 304 30 57 -12 66 -12 77 2 13 17 200 62 217 52
15 -9 58 5 64 22 3 8 -1 24 -9 36 -21 30 -19 86 5 124 36 60 144 98 225 81 55
-12 90 3 81 34 -9 37 5 79 32 91 22 10 28 8 56 -25 17 -20 54 -48 83 -62 29
-14 76 -46 106 -70 75 -61 110 -77 179 -84 32 -2 57 -6 55 -8 -2 -2 -30 -6
-63 -9 -64 -6 -89 -11 -146 -26 -30 -8 -39 -16 -48 -45 -7 -19 -9 -46 -6 -59
7 -29 73 -70 136 -84 55 -12 116 -37 125 -51 6 -10 -67 -16 -157 -13 -27 1
-48 -1 -48 -5 0 -5 14 -18 30 -31 27 -19 38 -21 89 -15 l58 6 24 -43 c23 -41
36 -50 185 -124 179 -89 227 -121 269 -177 33 -44 66 -65 163 -106 75 -31 199
-110 279 -179 31 -26 76 -81 110 -135 66 -104 97 -137 168 -177 80 -46 262
-186 373 -289 178 -165 348 -380 399 -504 41 -102 68 -149 126 -223 55 -71
102 -159 93 -174 -3 -5 -16 -6 -30 -4 -18 4 -26 0 -31 -17 -23 -73 106 -141
215 -113 47 12 55 12 71 -3 18 -16 21 -14 65 35 25 28 52 51 60 51 16 0 18
-33 5 -93 -6 -23 -12 -54 -16 -69 -3 -15 -18 -42 -34 -60 -16 -19 -34 -54 -40
-78 -17 -69 -35 -124 -41 -130 -3 -3 -18 -24 -33 -48 -15 -23 -31 -42 -36 -42
-5 0 -19 -17 -31 -37 -25 -43 -22 -67 26 -231 33 -111 27 -196 -22 -296 -37
-75 -42 -115 -20 -192 7 -27 19 -75 26 -107 10 -50 20 -68 74 -125 39 -42 79
-99 105 -152 24 -47 49 -91 56 -99 21 -22 34 -5 25 35 -5 20 -6 42 -4 48 5 14
96 76 111 76 7 0 27 7 45 16 40 19 90 5 87 -23 -1 -10 -1 -25 0 -33 1 -12 3
-13 10 -1 5 8 14 10 22 5 17 -10 63 -17 112 -18 26 0 42 6 48 17 6 9 18 17 29
17 10 0 22 9 25 20 3 11 10 20 15 20 5 0 25 11 45 24 20 14 53 30 73 37 20 6
127 47 237 91 278 111 336 128 460 133 67 2 115 13 115 26 0 4 10 6 21 4 12
-3 19 -2 16 1 -5 6 8 24 49 67 12 12 73 45 137 74 109 50 118 52 188 49 41 -2
78 -4 82 -5 5 0 7 -13 5 -28 -2 -22 -15 -33 -73 -61 -38 -19 -97 -45 -130 -58
-140 -53 -260 -106 -323 -142 -119 -69 -193 -103 -220 -104 -15 0 -58 5 -96
11 -106 18 -160 -8 -139 -67 5 -11 44 -60 89 -109 44 -48 120 -137 168 -198
48 -60 95 -119 105 -130 39 -47 62 -86 64 -107 0 -13 5 -26 9 -29 24 -16 -57
-119 -93 -119 -10 0 -21 -4 -24 -10 -8 -13 -24 -19 -410 -178 -60 -24 -123
-50 -140 -57 -117 -51 -218 -56 -307 -16 -54 25 -188 110 -487 310 -117 78
-234 152 -260 163 -25 11 -80 23 -121 27 l-75 6 -43 -53 c-53 -65 -93 -87
-131 -74 -37 13 -66 -12 -87 -74 -16 -48 -39 -84 -55 -84 -4 0 -12 19 -16 41
-12 61 -30 68 -99 37 -66 -29 -136 -51 -434 -134 -229 -63 -760 -196 -860
-214 -36 -7 -92 -21 -125 -30 -33 -10 -125 -35 -205 -54 -80 -20 -161 -41
-181 -46 -20 -6 -61 -15 -90 -20 -53 -10 -86 -19 -219 -59 -65 -20 -61 -20
3968 -20 l4032 -1 0 5400 0 5400 -3125 0 c-1765 0 -3125 -4 -3125 -9 0 -4 8
-35 19 -67 37 -117 63 -314 41 -314 -8 0 -10 9 -6 25 5 20 3 25 -13 25 -18 0
-71 58 -71 79 0 5 -6 14 -13 18 -6 4 -25 25 -40 46 -15 20 -33 37 -39 37 -7 0
-25 12 -40 27 -30 29 -40 32 -105 40 -24 3 -43 9 -43 14 0 5 -9 9 -19 9 -27 0
-36 -36 -17 -65 17 -27 21 -71 7 -79 -18 -12 -100 44 -120 82 -7 13 -23 27
-37 32 -14 6 -22 15 -19 20 4 6 3 9 -2 8 -4 -1 -27 10 -50 25 -24 15 -47 27
-53 27 -5 0 -10 5 -10 10 0 7 -810 10 -2410 10 -1928 0 -2410 -3 -2410 -13z
m5220 -4655 c0 -4 18 -9 40 -10 23 -2 40 2 40 8 0 5 17 10 38 10 39 0 98 -42
87 -61 -4 -5 -6 -50 -6 -100 0 -130 -21 -230 -69 -322 -22 -43 -40 -83 -40
-87 0 -13 -40 -71 -89 -129 l-41 -49 31 -11 c17 -6 70 -15 118 -21 47 -6 102
-15 121 -20 19 -5 89 -16 155 -25 236 -32 355 -69 523 -163 40 -23 61 -27 135
-29 57 -1 119 -10 175 -26 48 -13 132 -37 187 -52 110 -30 157 -51 204 -90 27
-23 42 -55 26 -55 -3 0 -56 26 -118 58 -160 82 -201 96 -317 107 -36 4 -80 10
-98 15 -24 6 -32 6 -29 -3 5 -17 66 -57 96 -63 79 -16 171 -52 244 -95 45 -26
120 -69 167 -94 47 -25 121 -73 165 -105 44 -33 100 -72 125 -87 53 -33 174
-152 247 -243 29 -36 80 -98 113 -138 33 -40 60 -75 60 -79 0 -7 -41 20 -130
87 -41 32 -90 65 -108 74 -42 22 -147 117 -190 173 -52 68 -146 133 -260 180
-57 24 -106 43 -108 43 -2 0 54 -58 124 -129 135 -136 180 -171 224 -171 19 0
35 -11 58 -40 19 -24 40 -40 53 -40 33 0 202 -117 258 -178 103 -113 157 -194
262 -399 46 -90 67 -140 128 -306 15 -43 46 -111 67 -152 92 -175 -36 -14
-150 190 -40 71 -92 154 -114 185 -23 30 -64 96 -92 145 -150 266 -148 264
-311 418 -62 58 -72 63 -47 24 8 -12 17 -41 21 -65 4 -24 17 -53 29 -65 30
-29 122 -154 182 -247 58 -90 175 -350 158 -350 -3 0 -44 39 -90 88 -75 77
-154 186 -154 212 0 5 -13 24 -28 42 -61 70 -118 173 -135 242 -24 96 -36 113
-90 117 -24 2 -50 3 -58 1 -21 -4 -39 -59 -39 -116 0 -26 -3 -45 -8 -43 -4 3
-5 40 -2 82 3 42 2 79 -1 81 -4 2 -12 23 -18 46 -10 40 -15 45 -82 77 -114 55
-257 179 -438 379 -122 136 -306 289 -406 339 -58 29 -322 115 -341 111 -10
-2 1 -13 32 -33 59 -37 104 -74 104 -86 0 -12 -20 -3 -160 72 -124 67 -298
129 -362 129 -42 0 -26 -16 35 -35 117 -38 234 -112 387 -244 48 -42 117 -93
153 -114 44 -26 124 -96 249 -219 167 -164 351 -329 500 -450 32 -25 81 -54
110 -63 55 -18 88 -45 88 -74 0 -9 11 -33 25 -54 15 -21 21 -37 14 -37 -14 0
-222 70 -299 100 -29 12 -71 34 -94 49 -23 16 -102 68 -176 117 -74 48 -151
100 -170 115 -19 16 -82 65 -140 110 -62 48 -203 180 -345 323 -302 306 -286
296 -507 293 -164 -2 -191 -11 -103 -33 51 -13 65 -26 65 -60 0 -26 27 -50
122 -107 42 -25 164 -110 270 -189 106 -79 213 -159 238 -176 83 -60 207 -218
186 -239 -3 -4 -41 28 -84 70 -99 99 -336 277 -367 277 -4 0 15 -17 42 -38 82
-66 138 -123 213 -222 85 -111 94 -119 220 -218 81 -64 163 -135 279 -238 13
-12 58 -41 100 -65 70 -41 81 -44 147 -44 65 0 73 2 107 32 56 49 104 58 201
38 44 -9 94 -23 111 -32 109 -58 134 -68 194 -73 64 -5 65 -5 74 -40 5 -19 6
-89 3 -155 -6 -144 -6 -134 -5 -213 2 -66 -23 -142 -46 -142 -6 0 -20 7 -31
15 -25 19 -34 19 -34 0 0 -22 -37 -18 -50 4 -5 11 -7 27 -4 35 4 10 -1 18 -12
22 -11 3 -42 17 -69 31 -59 30 -104 27 -146 -11 -56 -49 -61 -91 -28 -241 12
-53 18 -99 14 -103 -4 -4 -10 -2 -12 4 -10 29 -124 170 -221 273 -59 63 -131
146 -161 185 -197 259 -271 343 -377 426 -84 67 -152 116 -194 139 -47 25 -65
47 -83 101 -29 87 -71 152 -157 244 -118 127 -130 137 -320 268 -30 20 -89 72
-130 113 -62 63 -91 84 -170 121 -94 44 -118 56 -238 121 -51 28 -66 32 -77
23 -12 -10 -18 -10 -30 0 -15 12 -38 80 -30 88 3 3 141 -40 305 -95 35 -12
-169 168 -214 188 -14 7 -26 18 -26 24 0 7 -17 32 -37 56 -43 50 -67 89 -55
89 4 0 12 -4 18 -9 5 -6 23 -3 46 8 55 28 171 51 283 58 98 6 167 22 97 23
-46 0 -62 20 -62 74 0 25 -4 46 -9 46 -5 0 -13 9 -16 20 -4 13 -15 20 -31 20
-15 0 -24 6 -24 15 0 9 -7 18 -15 21 -15 6 -21 44 -7 44 8 0 32 93 32 126 0
12 -8 48 -19 80 -18 59 -18 134 1 134 6 0 8 7 4 15 -3 9 0 15 8 15 8 0 16 9
19 20 5 18 14 20 80 20 42 0 78 4 81 9 3 5 15 7 26 4 11 -3 35 1 52 10 18 8
40 17 48 20 24 9 110 8 110 -1z m-3280 -730 c0 -14 95 -32 132 -25 27 4 37 1
41 -11 7 -19 -14 -31 -38 -22 -9 3 -24 -3 -35 -14 -11 -11 -23 -21 -27 -21
-12 -2 -36 -10 -59 -19 -28 -11 -372 -4 -387 8 -7 5 -24 12 -39 16 -37 9 -36
26 2 26 17 0 47 7 68 16 20 9 72 17 116 19 43 3 83 9 90 14 10 8 43 14 114 19
12 1 22 -2 22 -6z m-1211 -147 c7 -4 22 -8 35 -9 13 -2 33 -13 45 -25 13 -13
39 -29 59 -38 27 -11 32 -17 21 -24 -8 -5 -24 -9 -36 -9 -12 0 -28 -7 -36 -15
-13 -13 -21 -13 -61 1 -25 9 -55 27 -65 40 -10 13 -25 24 -33 24 -8 0 -23 8
-35 17 l-21 17 25 22 c20 17 32 20 58 14 18 -4 38 -11 44 -15z m4037 -370 c95
-38 157 -91 222 -187 26 -38 47 -53 116 -86 85 -41 151 -84 241 -156 60 -49
52 -41 149 -149 87 -96 93 -129 15 -78 -73 48 -240 158 -314 208 -43 30 -104
59 -160 77 -50 17 -99 39 -111 50 -11 12 -41 65 -65 119 -43 97 -70 132 -164
211 -16 14 -27 26 -23 26 4 0 46 -16 94 -35z m2789 -366 c232 -22 320 -69 384
-201 17 -36 55 -98 85 -139 29 -41 71 -105 92 -144 21 -38 52 -90 69 -115 56
-80 118 -197 203 -382 37 -82 51 -105 60 -96 7 7 12 18 12 26 0 31 36 3 69
-54 47 -81 66 -101 124 -130 33 -17 53 -22 65 -16 23 13 42 4 42 -18 0 -37
188 -78 218 -48 17 17 15 63 -3 99 -9 16 -18 59 -21 94 -5 60 -4 65 14 65 23
0 82 -52 82 -72 0 -25 -17 -40 -38 -34 -11 4 -23 3 -26 -2 -8 -13 29 -86 79
-158 42 -61 42 -61 49 -177 8 -125 9 -122 -41 -120 -7 1 -13 -3 -13 -7 0 -4
-19 -10 -42 -13 -32 -4 -50 -14 -70 -38 -15 -18 -25 -35 -23 -37 3 -3 0 -11
-5 -18 -6 -6 -9 -18 -8 -25 2 -8 -3 -13 -9 -11 -8 1 -13 -9 -13 -27 0 -17 -4
-32 -10 -36 -5 -3 -6 -13 -3 -22 5 -13 2 -15 -13 -10 -17 6 -17 6 -3 -6 12 -9
13 -15 5 -23 -14 -13 -82 -25 -90 -16 -6 6 -29 12 -53 14 -7 1 -10 5 -7 9 2 4
1 9 -3 11 -5 1 -34 31 -65 65 -49 52 -58 67 -58 98 0 23 -13 60 -35 100 -31
55 -40 64 -73 70 -45 8 -124 50 -150 79 -11 11 -36 53 -57 91 -21 39 -48 86
-60 105 -43 68 -75 140 -86 192 -14 66 -41 120 -76 152 -25 24 -26 28 -15 59
18 49 15 65 -15 84 -33 21 -168 157 -191 192 -12 18 -13 26 -4 29 31 10 55 41
55 70 0 37 -33 69 -97 92 -52 20 -89 79 -81 128 4 24 2 34 -10 38 -17 7 -21
49 -5 59 32 20 -20 95 -67 95 -13 0 -41 -9 -61 -19 -40 -21 -59 -17 -94 20
-10 10 -33 30 -53 44 -48 37 -47 59 3 51 20 -4 82 -11 137 -17z m1927 -1290
c37 -18 68 -35 68 -38 0 -33 -122 -107 -199 -121 -38 -7 -40 -6 -46 21 -4 16
-11 29 -16 29 -5 0 -9 4 -9 10 0 13 110 130 123 130 6 0 41 -14 79 -31z m251
-129 c16 -16 34 -30 41 -30 6 0 27 -13 46 -28 19 -16 50 -37 67 -47 19 -11 41
-37 53 -62 11 -24 26 -43 34 -43 8 0 19 -14 25 -31 33 -95 -13 -97 -113 -5
-22 20 -46 36 -53 36 -7 0 -13 4 -13 9 0 13 -93 71 -113 71 -14 0 -17 12 -17
80 0 44 3 80 8 80 4 0 20 -13 35 -30z m-2082 -1549 c9 -21 18 -26 39 -25 42 3
54 -9 30 -31 -11 -10 -20 -13 -20 -7 0 22 -18 12 -24 -13 -4 -14 -14 -29 -24
-32 -9 -4 -25 -15 -36 -24 -20 -19 -78 -33 -163 -38 -7 -1 -15 -12 -19 -26 -9
-36 -29 -49 -47 -30 -9 8 -24 15 -34 15 -10 0 -25 5 -33 10 -11 7 -5 10 23 10
20 0 37 5 37 10 0 6 9 10 20 10 10 0 24 9 30 20 6 11 17 20 25 20 29 0 72 50
79 91 6 38 27 52 42 28 4 -7 12 1 20 20 15 36 37 33 55 -8z"/>
<path d="M4550 5932 c0 -6 -7 -12 -16 -12 -13 0 -15 -7 -10 -32 3 -18 8 -108
12 -200 4 -93 11 -168 16 -168 4 0 8 -17 8 -39 0 -57 18 -144 33 -153 21 -14
27 -9 27 22 0 24 4 30 23 30 23 0 62 20 40 20 -8 0 -13 13 -13 29 0 17 -6 31
-15 35 -13 5 -13 9 -3 27 10 17 10 23 1 26 -7 3 -13 18 -13 34 0 16 -4 29 -10
29 -6 0 -10 30 -10 70 0 56 -3 70 -15 70 -22 0 -18 30 6 56 15 16 19 29 14 44
-5 16 -9 19 -15 10 -5 -9 -9 -9 -14 -1 -4 6 -16 11 -27 11 -10 0 -19 5 -19 10
0 6 6 10 14 10 24 0 25 13 5 50 -11 19 -19 29 -19 22z"/>
<path d="M10735 5085 c-110 -15 -104 -13 -79 -28 11 -7 38 -31 59 -54 22 -24
44 -43 50 -43 37 0 166 -70 270 -148 66 -49 150 -108 186 -131 49 -30 101 -80
199 -190 72 -82 149 -173 169 -202 55 -79 127 -217 117 -226 -4 -4 -99 85
-211 198 -112 114 -234 228 -272 255 -37 26 -93 70 -123 98 -61 55 -183 138
-246 166 -83 38 -373 94 -391 76 -4 -3 -7 -18 -8 -34 -2 -20 10 -40 45 -77 26
-27 81 -93 123 -146 86 -110 166 -185 270 -255 74 -50 360 -329 474 -462 52
-61 61 -76 51 -91 -8 -13 -5 -34 12 -89 22 -70 20 -108 -4 -68 -25 42 -46 56
-86 56 -51 0 -53 -19 -5 -64 40 -38 45 -74 17 -121 -10 -16 -21 -48 -25 -69
-4 -23 -18 -52 -36 -70 -16 -17 -32 -47 -36 -66 -12 -61 -16 -70 -35 -70 -10
0 -28 12 -39 26 -21 27 -20 35 19 106 8 13 5 20 -11 28 -28 16 -167 -17 -180
-42 -13 -25 -13 -187 1 -222 6 -16 9 -71 8 -122 -3 -86 -1 -94 21 -118 14 -14
29 -26 33 -26 27 0 104 -139 114 -205 7 -48 45 -130 59 -129 10 1 35 45 75
135 24 54 50 150 50 184 0 13 5 27 10 30 6 3 10 -2 10 -12 0 -10 15 -48 33
-83 29 -57 37 -65 70 -73 36 -9 97 -65 97 -90 0 -7 -8 -41 -18 -77 -23 -81
-19 -98 51 -193 63 -85 108 -120 224 -176 l83 -40 24 32 c13 18 27 42 31 55 8
27 25 29 25 2 0 -31 49 -51 94 -39 45 12 82 5 116 -22 23 -18 23 -20 5 -18
-69 5 -75 2 -75 -44 0 -51 -37 -131 -63 -135 -11 -2 -32 11 -52 32 l-33 35
-47 -25 c-27 -14 -60 -38 -75 -54 -16 -17 -33 -30 -39 -30 -6 0 -30 -9 -54
-20 -23 -10 -49 -20 -57 -22 -8 -2 -23 -15 -32 -31 -10 -15 -23 -27 -29 -27
-6 0 -26 -7 -44 -16 -45 -21 -71 -15 -67 14 3 21 0 23 -26 19 -43 -7 -121 -44
-128 -61 -7 -17 20 -72 39 -79 8 -3 13 -16 12 -29 -3 -39 -59 -36 -64 5 -1 8
-39 47 -46 47 -3 0 -15 9 -27 20 -12 11 -28 20 -35 20 -7 0 -13 4 -13 9 0 5
-14 14 -31 21 -25 11 -32 11 -39 0 -10 -17 6 -72 25 -83 8 -4 15 -15 15 -22 0
-8 6 -15 13 -15 8 0 13 -8 12 -18 -3 -28 -26 -106 -35 -117 -4 -5 -14 -29 -20
-52 -7 -23 -17 -40 -22 -37 -5 3 -8 2 -7 -3 7 -38 -27 -68 -43 -38 -5 8 -16
15 -24 15 -8 0 -35 21 -60 47 -78 79 -82 115 -24 212 40 68 47 94 31 120 -6
10 -19 12 -46 7 -39 -8 -45 -10 -110 -43 -22 -11 -73 -28 -113 -38 -88 -21
-122 -45 -122 -87 0 -17 18 -76 40 -132 32 -79 52 -112 90 -151 33 -34 54 -67
65 -102 21 -64 35 -66 88 -18 39 36 46 39 70 29 20 -7 9 -52 -17 -66 -11 -6
-50 -13 -86 -14 -106 -5 -164 -33 -264 -127 -21 -20 -43 -37 -47 -37 -4 0 -15
-7 -24 -16 -9 -10 -35 -17 -66 -17 -49 -2 -51 -1 -107 58 -31 33 -75 82 -97
109 -34 41 -45 48 -76 48 -32 0 -95 -24 -109 -41 -3 -3 -22 -15 -43 -26 -35
-19 -87 -64 -197 -170 -25 -24 -50 -49 -56 -57 -6 -7 -26 -27 -45 -43 -19 -17
-56 -59 -84 -95 -27 -36 -52 -67 -55 -70 -3 -3 -11 -17 -18 -31 -8 -14 -41
-62 -74 -105 -33 -43 -78 -107 -100 -142 -22 -34 -45 -62 -49 -62 -5 0 -9 -7
-9 -15 0 -9 -11 -37 -25 -63 -25 -46 -34 -109 -15 -97 6 3 10 1 10 -4 0 -6 19
-23 43 -38 39 -26 48 -28 127 -24 47 2 146 4 221 4 112 0 141 -3 170 -18 43
-23 225 -33 284 -15 38 11 106 18 349 39 57 5 108 11 114 15 5 3 88 19 183 36
272 46 460 87 509 109 27 13 67 21 100 21 53 0 65 5 131 52 16 11 48 17 98 19
78 2 79 3 296 48 77 16 160 32 185 36 64 9 189 46 228 67 18 10 50 18 71 18
32 0 48 8 90 46 28 25 51 53 51 62 -1 10 -9 35 -20 57 -14 29 -19 62 -20 121
0 80 0 81 -38 120 -26 26 -41 53 -46 79 -4 22 -15 56 -24 75 -16 36 -85 126
-112 147 -10 7 -14 27 -13 57 2 62 9 70 40 46 29 -22 69 -25 127 -9 53 15 75
7 142 -50 46 -40 62 -61 81 -112 25 -68 25 -70 -18 -176 -16 -39 -29 -84 -29
-100 0 -36 50 -123 89 -156 33 -27 129 -67 162 -67 25 0 71 23 129 65 25 18
72 45 105 59 32 15 66 33 75 40 8 7 47 16 87 20 39 3 100 15 135 26 90 28 130
26 198 -12 l58 -32 74 23 c40 13 88 26 106 28 34 5 64 36 96 100 22 44 20 68
-8 86 -60 40 -69 74 -42 172 7 30 10 60 5 72 -9 26 -100 96 -152 118 -37 15
-111 21 -105 8 30 -64 54 -109 60 -111 4 -2 13 -22 19 -44 10 -40 10 -40 -38
-84 -54 -49 -56 -50 -73 -29 -20 24 -44 18 -95 -23 -31 -25 -60 -62 -84 -107
-31 -57 -44 -72 -72 -81 -40 -14 -55 -8 -112 45 -58 53 -97 140 -98 221 -2
123 -6 129 -111 166 -33 11 -48 22 -48 35 0 9 -14 32 -32 49 -25 25 -32 42
-36 83 -3 29 -20 88 -38 132 -19 44 -34 84 -34 91 0 17 30 40 98 74 38 19 67
41 74 55 6 14 14 25 18 25 17 0 19 63 3 93 -11 22 -19 73 -24 167 -7 143 -17
194 -53 275 -12 28 -28 69 -36 93 -17 55 -80 162 -102 176 -13 8 -22 6 -40
-11 -30 -28 -67 -38 -72 -21 -2 7 -14 51 -26 98 -28 105 -50 155 -88 200 -26
30 -32 33 -46 21 -8 -7 -23 -11 -31 -7 -13 5 -14 10 -5 26 9 18 7 27 -15 56
-14 18 -34 38 -44 43 -10 6 -24 25 -30 43 -7 18 -21 52 -32 76 -10 23 -19 55
-19 71 0 19 -13 45 -37 73 -20 23 -51 77 -70 118 -83 184 -117 241 -167 281
-128 103 -203 189 -166 189 21 0 119 -80 198 -162 104 -107 112 -118 159 -213
22 -44 69 -129 105 -190 35 -60 92 -157 125 -215 33 -58 86 -149 117 -202 75
-128 135 -178 123 -102 -7 40 -85 201 -123 251 -13 17 -24 34 -24 36 0 3 -27
45 -59 94 -67 101 -135 222 -129 228 2 2 50 -58 107 -135 127 -171 131 -175
131 -122 0 23 -6 45 -15 52 -9 7 -13 15 -10 18 3 3 -2 13 -11 23 -17 19 -12
39 10 39 9 0 16 -18 20 -45 4 -25 13 -45 19 -45 16 0 77 -79 77 -99 0 -8 7
-23 16 -33 13 -14 14 -21 5 -32 -10 -12 -9 -20 7 -43 11 -15 41 -63 67 -106
27 -43 64 -92 84 -108 21 -16 54 -53 76 -82 21 -28 51 -68 66 -88 16 -20 38
-56 51 -80 25 -50 39 -62 52 -49 20 20 36 10 36 -20 0 -20 -5 -30 -15 -30 -20
0 -28 -37 -28 -134 -1 -145 40 -259 103 -283 45 -17 44 -29 -6 -198 -10 -33
-17 -63 -16 -66 0 -4 -19 -28 -43 -55 -24 -27 -44 -52 -45 -56 0 -5 -7 -8 -14
-8 -14 0 -66 -58 -66 -73 0 -4 6 -7 13 -7 7 0 23 -12 36 -26 12 -14 38 -32 57
-40 32 -14 37 -13 87 16 56 31 112 39 147 20 24 -13 44 16 29 43 -6 10 -8 26
-4 36 3 11 -6 44 -20 76 -30 70 -31 85 -15 205 13 99 31 150 54 150 7 0 37
-32 65 -70 73 -97 76 -98 160 -53 39 21 79 52 91 70 30 43 63 79 81 86 11 4
11 6 -2 6 -9 1 -24 10 -34 21 -10 12 -37 30 -59 40 -23 11 -70 41 -106 68 -64
47 -65 49 -93 137 -15 50 -31 95 -35 102 -4 6 -34 50 -67 98 -75 107 -135 206
-135 223 0 7 -14 48 -30 91 -22 56 -37 81 -54 89 -22 10 -24 17 -23 69 0 48
-7 74 -41 148 -37 81 -44 90 -69 91 -52 3 -88 19 -88 40 0 14 9 20 34 24 19 3
36 10 37 15 6 16 -71 185 -100 221 -28 36 -127 104 -150 104 -25 0 -46 12 -46
25 0 7 -24 23 -52 35 -29 12 -80 35 -114 51 -34 16 -66 29 -72 29 -16 0 -86
91 -129 168 -20 37 -62 92 -93 122 -68 68 -234 193 -238 180 -7 -20 290 -413
362 -480 123 -114 186 -182 215 -233 17 -30 31 -57 31 -61 0 -15 -24 -3 -70
33 -27 21 -79 56 -117 76 -89 50 -150 100 -157 130 -7 27 -77 82 -171 135 -74
42 -152 98 -186 136 -36 39 -130 185 -167 259 -85 170 -274 370 -542 573 -49
38 -219 113 -286 127 -81 17 -222 17 -349 0z m582 -852 c24 -14 51 -35 61 -46
9 -12 51 -49 92 -82 41 -32 112 -93 157 -135 44 -41 148 -136 230 -210 214
-194 259 -245 402 -445 162 -227 154 -210 292 -630 107 -329 177 -438 249
-388 12 8 23 13 24 12 2 -2 0 -53 -5 -113 -6 -89 -11 -112 -28 -130 -25 -27
-26 -44 -4 -112 9 -30 13 -57 10 -61 -15 -14 -35 24 -51 97 -9 41 -30 104 -48
138 -28 57 -44 73 -142 146 -169 126 -216 177 -258 278 -20 47 -50 140 -67
209 -17 68 -45 151 -62 184 -17 33 -50 98 -74 145 -68 135 -190 283 -382 465
-68 64 -125 128 -158 180 -28 44 -76 105 -105 135 -29 30 -90 105 -136 165
-45 61 -94 121 -108 134 -32 30 -33 65 -3 86 26 19 54 14 114 -22z m800 -2400
c22 -27 65 -64 96 -83 45 -28 65 -50 107 -120 53 -86 65 -135 47 -177 -14 -31
-46 -29 -88 4 -34 26 -57 66 -80 133 -13 39 -56 90 -75 90 -7 0 -15 8 -19 19
-3 10 -21 32 -40 50 -37 33 -43 59 -25 105 14 37 32 32 77 -21z"/>
<path d="M8177 4637 c-7 -10 -42 -29 -77 -41 -42 -15 -69 -30 -76 -44 -6 -12
-19 -31 -28 -41 -27 -29 -16 -54 27 -66 22 -6 46 -21 56 -33 11 -16 26 -22 46
-21 17 2 41 -1 54 -5 18 -6 28 -4 40 11 10 13 39 24 81 31 l65 12 28 -31 c27
-28 32 -30 95 -27 l67 3 3 57 3 58 -30 -6 c-61 -12 -98 4 -187 81 -47 41 -88
76 -92 76 -38 7 -64 2 -75 -14z"/>
<path d="M7946 4373 c-36 -6 -106 -49 -106 -66 -1 -6 -2 -42 -3 -80 -1 -37 1
-67 5 -67 4 0 15 11 24 24 8 14 28 27 42 30 71 15 94 16 114 5 19 -10 25 -8
43 15 13 17 35 29 58 33 21 3 40 9 42 13 12 19 -11 41 -51 51 -24 6 -44 16
-44 21 0 5 -4 7 -10 3 -5 -3 -26 1 -46 10 -20 8 -37 14 -38 14 0 -1 -14 -4
-30 -6z"/>
<path d="M8181 4286 c-7 -9 -10 -24 -6 -36 4 -14 1 -28 -9 -39 -16 -17 -15
-23 4 -75 12 -31 32 -63 45 -72 33 -21 45 -106 19 -135 -9 -10 -23 -19 -31
-19 -7 0 -22 -9 -33 -20 -18 -18 -33 -20 -133 -20 -166 0 -168 1 -187 35 -16
28 -21 30 -81 31 -130 2 -125 1 -103 25 18 20 18 21 -1 36 -14 10 -33 12 -60
8 -47 -7 -107 17 -99 40 8 20 -26 24 -69 7 -21 -8 -40 -12 -44 -9 -3 4 -19 -1
-36 -9 -16 -9 -60 -18 -96 -21 -36 -2 -91 -10 -121 -18 -30 -8 -75 -17 -100
-20 -25 -4 -56 -13 -70 -20 -14 -7 -58 -19 -98 -26 -40 -7 -75 -16 -78 -21 -3
-4 -23 -8 -45 -8 -21 0 -39 -4 -39 -10 0 -5 -12 -10 -27 -11 -16 0 -36 -4 -46
-8 -50 -19 53 -44 113 -27 14 4 3 -4 -25 -18 -27 -13 -106 -36 -175 -51 -69
-14 -138 -30 -155 -35 -16 -5 -76 -19 -132 -32 -57 -12 -103 -25 -103 -29 0
-4 8 -5 18 -3 109 23 288 54 315 54 20 0 48 5 64 11 15 6 53 15 83 20 156 24
507 93 591 114 30 8 70 15 88 15 18 0 56 13 85 29 34 19 57 26 63 20 5 -5 29
-11 54 -13 24 -2 47 -4 52 -5 18 -2 4 -37 -24 -61 -25 -20 -32 -35 -35 -69 -1
-24 0 -40 3 -37 10 10 53 -35 53 -55 0 -22 63 -77 95 -84 14 -3 35 -7 48 -10
12 -2 63 2 113 9 78 12 101 12 158 0 64 -13 68 -13 100 9 93 61 180 135 209
176 30 43 32 52 31 126 0 44 -2 103 -4 130 -2 28 0 67 5 87 6 32 4 42 -20 70
-15 18 -35 36 -44 39 -9 3 -16 15 -16 25 0 24 -46 31 -64 10z"/>
<path d="M6777 3290 c-54 -49 -81 -96 -90 -154 -3 -21 -14 -47 -23 -57 -13
-15 -14 -23 -5 -52 13 -37 48 -80 60 -73 4 3 7 38 6 78 -2 95 24 180 72 229
21 22 33 44 31 55 -3 16 -11 12 -51 -26z"/>
<path d="M6878 3225 c-35 -32 -48 -81 -41 -151 5 -45 2 -60 -14 -82 -11 -15
-27 -40 -35 -57 -9 -16 -41 -56 -72 -89 -46 -48 -56 -65 -56 -93 0 -19 -5 -43
-10 -53 -13 -23 -86 -68 -134 -81 -20 -5 -49 -21 -66 -35 -27 -23 -29 -30 -24
-67 3 -23 17 -71 32 -106 l26 -63 -32 -27 c-17 -14 -36 -38 -41 -53 -8 -20
-17 -28 -35 -28 -13 0 -32 -3 -42 -7 -13 -5 -15 -3 -9 7 5 8 4 11 -3 6 -6 -3
-17 2 -24 12 -28 41 -103 59 -138 35 l-23 -16 54 -28 c30 -15 69 -28 87 -29
18 0 42 -8 53 -19 19 -17 19 -20 4 -35 -9 -9 -21 -16 -26 -16 -5 0 -9 -11 -9
-25 0 -14 2 -25 4 -25 13 0 65 23 65 28 -3 23 6 31 45 41 25 6 56 11 69 11 20
0 23 -4 19 -30 -2 -16 -8 -30 -13 -30 -5 0 -4 -12 1 -26 13 -33 2 -54 -16 -30
-7 11 -27 18 -51 19 l-38 2 -3 -171 -3 -171 28 -29 c37 -37 57 -53 180 -145
75 -56 117 -80 162 -93 51 -14 65 -23 85 -54 23 -37 192 -183 245 -212 15 -9
72 -48 127 -87 94 -67 181 -114 265 -142 19 -6 61 -35 92 -64 30 -28 73 -68
94 -87 21 -19 72 -57 114 -85 75 -49 116 -73 250 -146 36 -19 111 -66 168
-103 121 -79 167 -106 184 -106 7 0 41 -12 77 -26 36 -15 74 -30 85 -34 11 -4
45 -17 75 -29 260 -104 547 -151 653 -106 25 10 21 39 -7 55 -42 22 -41 54 3
118 21 31 50 82 62 112 13 30 42 84 64 120 49 76 74 123 110 205 14 33 30 62
34 65 5 3 23 16 41 30 18 14 68 39 111 57 44 17 96 45 117 61 38 30 138 83
181 97 13 4 45 23 71 41 26 19 51 34 56 34 12 0 44 37 44 50 0 20 -52 135 -77
172 -31 46 -74 57 -147 38 -28 -7 -82 -13 -121 -12 -79 1 -86 -2 -100 -42 -6
-17 -25 -38 -46 -50 -87 -51 -137 -119 -154 -210 -9 -45 -52 -90 -102 -106
-21 -7 -68 -26 -105 -43 -49 -22 -67 -36 -71 -53 -2 -13 1 -28 6 -33 13 -13 7
-20 -22 -26 -12 -2 -19 0 -16 6 4 5 -1 9 -9 9 -18 0 -52 47 -42 58 4 3 11 0
16 -8 8 -12 10 -11 10 7 0 12 6 24 13 27 8 3 6 9 -8 17 -11 7 -29 24 -40 37
-11 14 -33 38 -50 54 -114 111 -125 124 -130 158 -3 19 -14 85 -25 146 -11 61
-20 154 -20 207 0 52 -4 106 -9 119 -15 40 -89 115 -144 146 -77 44 -140 109
-156 162 -7 24 -13 72 -12 107 0 34 -3 64 -7 67 -5 3 -28 -7 -53 -22 -40 -25
-53 -27 -146 -27 l-102 0 -41 -40 c-41 -40 -41 -40 -115 -38 -40 1 -83 6 -94
13 -24 12 -51 60 -51 88 0 28 -67 108 -105 126 -18 9 -46 16 -63 16 -23 0 -35
9 -57 40 -15 22 -46 50 -69 63 -28 15 -48 36 -61 64 l-20 42 -42 -19 c-41 -18
-42 -18 -48 1 -4 10 -11 19 -16 19 -5 0 -9 24 -9 54 0 70 -15 84 -73 66 -80
-24 -185 -24 -262 -1 -81 24 -174 93 -200 148 -30 62 -46 275 -33 422 4 43
-10 48 -44 16z m1195 -1369 c42 -17 97 -72 97 -97 0 -10 4 -19 9 -19 5 0 12
-8 15 -18 7 -20 53 -45 104 -56 35 -8 52 -31 52 -70 0 -21 -6 -26 -34 -32 -19
-3 -39 -3 -45 0 -6 4 -19 2 -30 -4 -15 -7 -22 -7 -28 3 -4 8 -15 17 -23 20 -8
4 -33 18 -55 31 -31 19 -54 25 -100 25 -67 0 -124 -15 -127 -32 -6 -48 -4 -67
8 -67 16 0 17 -9 4 -30 -5 -8 -10 -10 -10 -4 0 6 -14 17 -31 24 -17 7 -37 19
-44 26 -7 7 -19 15 -26 16 -8 2 -19 8 -25 14 -19 17 -264 16 -297 -1 -29 -15
-67 -10 -67 9 0 16 -46 56 -65 56 -9 0 -16 14 -20 38 -15 90 -11 85 -63 78
-26 -3 -60 -9 -75 -11 -16 -3 -38 -3 -48 0 -16 5 -17 9 -6 19 55 55 195 76
519 79 135 1 250 5 254 10 12 12 123 8 157 -7z m-28 -386 c3 -6 17 -10 29 -10
15 0 26 -7 29 -20 3 -14 14 -20 31 -20 14 0 26 -4 26 -10 0 -5 18 -13 40 -16
37 -6 98 -44 71 -44 -7 0 -10 -4 -7 -9 4 -5 -25 -8 -66 -6 -76 4 -108 11 -108
25 0 5 -12 10 -27 12 -20 2 -34 15 -54 50 -15 25 -26 48 -24 50 9 8 55 7 60
-2z m-61 -250 c31 -12 32 -23 5 -86 -38 -90 -43 -99 -72 -126 -34 -32 -72 -36
-86 -9 -14 25 31 200 55 218 21 15 63 17 98 3z"/>
<path d="M7448 3064 c-16 -8 -28 -17 -28 -19 0 -3 12 -4 28 -4 54 3 62 0 62
-26 0 -14 5 -25 10 -25 6 0 10 -26 10 -57 0 -32 4 -63 8 -70 4 -7 32 -12 66
-12 36 0 64 -5 72 -13 9 -8 16 -52 20 -115 9 -132 18 -144 96 -118 29 10 59
19 66 21 20 6 16 121 -5 139 -10 8 -38 32 -63 53 -25 22 -57 42 -71 45 -14 4
-41 20 -60 37 -19 16 -37 30 -41 30 -4 0 -9 8 -12 18 -3 9 -26 38 -51 64 -25
27 -45 52 -45 58 0 14 -31 12 -62 -6z"/>
<path d="M10246 3064 c-22 -22 -20 -43 12 -110 25 -56 27 -67 28 -207 1 -132
3 -151 21 -175 11 -15 29 -27 39 -27 43 0 55 89 30 218 -8 40 -17 104 -21 142
-13 132 -63 205 -109 159z"/>
<path d="M11291 2180 c-41 -45 -56 -101 -37 -138 8 -16 26 -36 40 -46 36 -23
124 -57 171 -65 29 -5 41 -12 43 -26 6 -32 20 -40 39 -22 10 8 38 24 63 35 25
11 60 36 78 56 19 20 42 36 52 36 30 0 45 26 31 57 -12 25 -13 25 -89 19 -42
-4 -100 -9 -128 -12 -64 -7 -115 16 -170 79 -55 61 -60 63 -93 27z"/>
<path d="M8939 2154 c-8 -10 0 -25 38 -66 27 -29 67 -75 89 -103 21 -27 42
-52 45 -55 4 -3 23 -38 44 -78 31 -62 57 -92 79 -92 3 0 6 12 6 28 0 17 -13
42 -32 64 -17 20 -45 70 -62 111 -35 83 -94 168 -128 184 -39 19 -67 22 -79 7z"/>
<path d="M9454 1895 c-23 -35 -14 -95 26 -177 34 -70 72 -114 88 -104 10 6 7
224 -3 257 -7 20 -53 49 -79 49 -9 0 -23 -11 -32 -25z"/>
</g>
</svg>
